<svg id="Capa_1" enable-background="new 0 0 512 512" height="512" viewBox="0 0 512 512" width="512" xmlns="http://www.w3.org/2000/svg"><g><path d="m388 81h-100v-36c0-24.813-20.187-45-45-45h-149c-24.813 0-45 20.187-45 45v141c0 24.813 20.187 45 45 45h115v206c0 41.355 33.645 75 75 75h104c41.355 0 75-33.645 75-75v-281c0-41.355-33.645-75-75-75zm0 30c24.813 0 45 20.187 45 45v197h-194v-115.561l16.295 10.184c4.933 3.083 10.438 4.61 15.923 4.61 6.403 0 12.777-2.082 18.175-6.202 10.023-7.648 14.158-20.394 10.535-32.469l-11.928-39.764v-62.798zm-309 75v-141c0-8.271 6.729-15 15-15h149c8.271 0 15 6.729 15 15v51.713.006 79.281c0 1.46.213 2.912.632 4.31l12.563 41.873-30.245-18.903c-2.384-1.49-5.139-2.28-7.95-2.28h-139c-8.271 0-15-6.729-15-15zm309 296h-104c-24.813 0-45-20.187-45-45v-54h194v54c0 24.813-20.187 45-45 45z"/><path d="m185 137h-32c-8.284 0-15 6.716-15 15s6.716 15 15 15h32c8.284 0 15-6.716 15-15s-6.716-15-15-15z"/><path d="m209 65h-80c-8.284 0-15 6.716-15 15s6.716 15 15 15h80c8.284 0 15-6.716 15-15s-6.716-15-15-15z"/><circle cx="336" cy="432.001" r="15"/></g></svg>